Coordinates
version=1
nRows=24
nColumns=22
inDegrees=yes

Units are S.I. units (second, meters, Newtons, ...)
If the header above contains a line with 'inDegrees', this indicates whether rotational values are in degrees (yes) or radians (no).

endheader
time	pelvis_tilt	pelvis_list	pelvis_rotation	pelvis_tx	pelvis_ty	pelvis_tz	hip_flexion_r	hip_adduction_r	hip_rotation_r	knee_angle_r	ankle_angle_r	subtalar_angle_r	hip_flexion_l	hip_adduction_l	hip_rotation_l	knee_angle_l	ankle_angle_l	subtalar_angle_l	lumbar_extension	lumbar_bending	lumbar_rotation
      4.05000000	     -8.98801480	      1.16599318	    -66.50385251	      0.12109006	      0.96608898	      0.99971378	     20.55571378	      9.05291542	    -17.53199280	    -18.83153562	      2.68586816	     -1.79411406	     16.65790233	    -10.52584654	      8.96816716	    -54.85701826	     10.93869646	      1.93372446	      0.01694925	      8.88620021	     -7.16159569
      4.06000000	     -8.91102103	      1.23189006	    -66.78146631	      0.12148822	      0.96689780	      1.00404302	     20.08451460	      9.19399041	    -17.21201518	    -18.45281950	      2.77361738	     -1.87560279	     17.16057852	    -10.16503813	      9.29770817	    -53.86619520	     11.55340721	      2.03227265	     -0.02623152	      8.82055928	     -6.96769904
      4.07000000	     -8.87332497	      1.33672305	    -66.97748979	      0.12197594	      0.96758649	      1.00818203	     19.68589701	      9.31948492	    -16.95189640	    -18.08296436	      2.86292595	     -1.90896900	     17.71878862	     -9.79462699	      9.73481750	    -52.78683342	     12.05124621	      2.04251617	     -0.00084380	      8.78339695	     -6.88805576
      4.08000000	     -8.78107827	      1.40562363	    -67.21808096	      0.12246120	      0.96833134	      1.01229444	     19.23401533	      9.41377223	    -16.63580196	    -17.72836796	      2.95423008	     -1.96546680	     18.14651399	     -9.41363157	     10.10325755	    -51.57882636	     12.48598396	      2.12961558	     -0.03937995	      8.70612339	     -6.72288373
      4.09000000	     -8.74580641	      1.51826244	    -67.39920001	      0.12300045	      0.96892215	      1.01622730	     18.87506131	      9.51479407	    -16.36906667	    -17.39653137	      3.04152400	     -1.98750016	     18.64625441	     -9.04607765	     10.56218700	    -50.33132724	     12.85370447	      2.14811820	     -0.00104985	      8.67261629	     -6.64196400
      4.10000000	     -8.62463582	      1.60378219	    -67.62845540	      0.12358180	      0.96958708	      1.02011892	     18.46660770	      9.54375018	    -16.04709785	    -17.09995801	      3.14945203	     -2.01147164	     19.00600066	     -8.62022423	     10.96307097	    -48.97930338	     13.15426676	      2.22481500	     -0.03016499	      8.56900109	     -6.47770925
      4.11000000	     -8.52880860	      1.70457125	    -67.83787276	      0.12420386	      0.97016016	      1.02387664	     18.10846364	      9.57271971	    -15.73521609	    -16.83202579	      3.25742729	     -2.02155691	     19.37418076	     -8.19907427	     11.41652420	    -47.60487268	     13.42774105	      2.29685318	     -0.02913407	      8.48970548	     -6.34510662
      4.12000000	     -8.41356844	      1.81235485	    -68.05894781	      0.12486099	      0.97069711	      1.02753530	     17.77351019	      9.56891549	    -15.41372584	    -16.60182977	      3.37448629	     -2.02534052	     19.69841124	     -7.74947584	     11.88823966	    -46.19668097	     13.67017960	      2.38716674	     -0.02765311	      8.39322517	     -6.20182749
      4.13000000	     -8.27837627	      1.91931577	    -68.29772387	      0.12554831	      0.97120879	      1.03110472	     17.45502233	      9.53691701	    -15.07431519	    -16.41210747	      3.50197847	     -2.02281069	     19.96721068	     -7.27584613	     12.37973686	    -44.76687704	     13.89203729	      2.51217283	     -0.03367176	      8.28243505	     -6.04381833
      4.14000000	     -8.12435587	      2.02339073	    -68.55708984	      0.12625876	      0.97170192	      1.03460107	     17.15160468	      9.47995092	    -14.71724815	    -16.26351501	      3.63935740	     -2.01313299	     20.17503605	     -6.78408529	     12.89096753	    -43.32213156	     14.09858361	      2.68686725	     -0.04673903	      8.15808224	     -5.87189809
      4.15000000	     -7.95483021	      2.12756921	    -68.83356710	      0.12697308	      0.97216796	      1.03802319	     16.86779845	      9.39963635	    -14.35738620	    -16.15121492	      3.77842631	     -2.00110649	     20.33076960	     -6.28151137	     13.42113774	    -41.87742160	     14.28539287	      2.90494573	     -0.06150598	      8.01717343	     -5.69266358
      4.16000000	     -7.77703430	      2.22288261	    -69.13065160	      0.12767602	      0.97261840	      1.04140180	     16.59489527	      9.31061176	    -13.98584684	    -16.07372997	      3.92374423	     -1.98406110	     20.42630667	     -5.79113152	     13.95476545	    -40.43602618	     14.46612112	      3.18166196	     -0.08212263	      7.87084384	     -5.50101586
      4.17000000	     -7.59693307	      2.30603781	    -69.44337995	      0.12836151	      0.97304922	      1.04473412	     16.32934540	      9.21943871	    -13.61046748	    -16.02253713	      4.06981333	     -1.96166462	     20.46862863	     -5.32921739	     14.47068649	    -39.01080117	     14.64116335	      3.51714001	     -0.10834733	      7.72461673	     -5.30266008
      4.18000000	     -7.44486294	      2.35904587	    -69.77602143	      0.12898307	      0.97346562	      1.04806193	     16.05102350	      9.17056560	    -13.22294491	    -15.97447759	      4.20751920	     -1.90909981	     20.46117614	     -4.95024803	     14.94148510	    -37.62059688	     14.85405918	      3.99658988	     -0.14494581	      7.61318348	     -5.10228354
      4.19000000	     -7.28966599	      2.43732944	    -70.09327239	      0.12957467	      0.97381503	      1.05130824	     15.83278866	      9.09540690	    -12.87810871	    -15.97520564	      4.34560202	     -1.89975913	     20.45603076	     -4.59049696	     15.37471473	    -36.26348824	     14.98163427	      4.29587763	     -0.14701104	      7.47905232	     -4.92626069
      4.20000000	     -7.16129749	      2.50441896	    -70.41989099	      0.13011533	      0.97412707	      1.05453344	     15.62290826	      9.05000124	    -12.54083068	    -15.98275498	      4.47498711	     -1.89409086	     20.43400188	     -4.31109535	     15.72221868	    -34.96251350	     15.09158215	      4.54415929	     -0.13896168	      7.37300419	     -4.76070191
      4.21000000	     -7.06805698	      2.55446474	    -70.74561364	      0.13056292	      0.97439929	      1.05773711	     15.41974245	      9.04684355	    -12.21046371	    -15.99982934	      4.60089359	     -1.88568418	     20.40315688	     -4.12876388	     15.96165570	    -33.72780486	     15.20010748	      4.74636240	     -0.12732069	      7.29587733	     -4.61102528
      4.22000000	     -7.00085924	      2.60417196	    -71.05957304	      0.13095118	      0.97461737	      1.06089376	     15.23441863	      9.06864426	    -11.88657219	    -16.01960916	      4.71717224	     -1.88129541	     20.38300734	     -4.01723468	     16.08994814	    -32.57082457	     15.29611871	      4.85855376	     -0.09767105	      7.23556193	     -4.50280377
      4.23000000	     -6.96866143	      2.64183136	    -71.35904707	      0.13128433	      0.97479323	      1.06401480	     15.06206934	      9.12479529	    -11.59349251	    -16.05334789	      4.83830874	     -1.88048415	     20.36717107	     -3.98600582	     16.10690923	    -31.49710850	     15.36047951	      4.88055879	     -0.05871912	      7.20553186	     -4.41106182
      4.24000000	     -6.93713043	      2.63586900	    -71.66866651	      0.13156951	      0.97499731	      1.06712973	     14.84842397	      9.19843087	    -11.29868800	    -16.09061708	      4.97062425	     -1.86334711	     20.29046017	     -4.01109542	     15.99936033	    -30.48819769	     15.38320212	      4.74941116	     -0.06054488	      7.18166921	     -4.32227204
      4.25000000	     -6.92969603	      2.67732614	    -71.95776266	      0.13184437	      0.97509532	      1.07018105	     14.68852799	      9.27801122	    -10.99234527	    -16.11458726	      5.09268995	     -1.86578403	     20.27729854	     -4.06271674	     15.80416440	    -29.57825058	     15.37611036	      4.61463599	      0.00939383	      7.16194142	     -4.28529719
      4.26000000	     -6.91343931	      2.65097676	    -72.24639914	      0.13211881	      0.97526437	      1.07324976	     14.46093641	      9.36248349	    -10.74694785	    -16.14965850	      5.23920534	     -1.84096154	     20.15766290	     -4.14960588	     15.54354652	    -28.71026622	     15.29803306	      4.24661032	      0.01341428	      7.14573296	     -4.22989771
      4.27000000	     -6.90780232	      2.67276917	    -72.51615485	      0.13243144	      0.97534429	      1.07624405	     14.27579989	      9.44208857	    -10.44247159	    -16.16224271	      5.37541406	     -1.82918991	     20.08870131	     -4.23185421	     15.24536491	    -27.93239375	     15.17804594	      3.99825724	      0.08393523	      7.12937963	     -4.25646836
      4.28000000	     -6.88586039	      2.66439249	    -72.77380558	      0.13277543	      0.97545555	      1.07923269	     14.05222203	      9.50673390	    -10.16609712	    -16.17301377	      5.52796392	     -1.80402131	     19.94528631	     -4.31283092	     14.93793299	    -27.18535985	     14.97954190	      3.67584210	      0.12805231	      7.09771220	     -4.29020223
